<svg width="50" height="46" viewBox="0 0 50 46" fill="none" xmlns="http://www.w3.org/2000/svg">
<path d="M16.8354 23.4516L39.9667 0L49.4167 9.48018L26.2875 32.936L14 35.5455L16.8354 23.4516Z" fill="#C86DD7"/>
<path fill-rule="evenodd" clip-rule="evenodd" d="M14.5833 16.1818H18.2146L22.3354 12H14.5833V16.1818ZM37.5 27.5773L41.6667 23.3474V32.9091H37.5V27.5773ZM27.0833 41.2727V45.4545H14.5833V41.2727H27.0833ZM10.4167 41.2727H4.16667V37.0909H0V45.4545H10.4167V41.2727ZM37.5 41.2727V37.0909H41.6667V45.4545H31.25V41.2727H37.5ZM0 32.9091H4.16667V24.5455H0V32.9091ZM4.16667 16.1818V20.3636H0V12H10.4167V16.1818H4.16667Z" fill="#FFC300"/>
<path d="M20 30.1646L24.6458 29.1777L43.9813 9.56918L40.425 6L21.0646 25.6295L20 30.1646H20Z" fill="white"/>
</svg>
