<svg width="44" height="48" viewBox="0 0 44 48" fill="none" xmlns="http://www.w3.org/2000/svg">
<path fill-rule="evenodd" clip-rule="evenodd" d="M0.750889 38.982C3.02692 42.4 8.749 41.026 12.583 39.616C21.9752 36.164 34.2393 27.226 40.4074 18.952C44.7895 13.074 44.3715 9.828 43.2475 8.138C42.5975 7.162 41.2274 6 38.3854 6C33.2113 6 26.2052 9.594 21.7772 12.32C17.4151 9.748 10.641 6.428 5.61295 6.428C2.78292 6.428 1.4129 7.56 0.76489 8.512C-0.159123 9.864 -0.617129 12.222 1.6029 16.142C1.2889 16.704 1.11089 17.352 1.11089 18.042C1.11089 20.176 2.81092 21.906 4.90494 21.906C6.99897 21.906 8.699 20.176 8.699 18.042C8.699 15.908 7.00097 14.178 4.90494 14.178L4.48494 14.202C3.31892 12.084 3.33292 10.902 3.59493 10.518C3.84093 10.154 4.59694 9.94 5.61295 9.94C7.20498 9.94 9.283 10.422 11.643 11.29C13.9471 12.14 16.3091 13.28 18.4751 14.472C13.9771 17.568 10.527 20.56 7.46498 23.668C6.09896 25.076 4.75494 26.606 3.59093 28.166C-0.791131 34.046 -0.373125 37.292 0.750889 38.982ZM40.3914 10.106C40.7634 10.664 40.6714 12.79 37.6594 16.828C33.7853 22.026 27.6052 27.13 22.1872 30.682C17.7731 33.576 10.313 37.61 5.61295 37.61C4.59094 37.61 3.85893 37.392 3.60693 37.014C2.86092 35.892 4.44894 31.72 10.085 25.964C12.175 27.826 14.4291 29.606 16.7171 31.228L16.7431 31.246C17.9471 30.582 19.0031 29.948 20.0471 29.286C17.3171 27.438 14.7551 25.442 12.605 23.54C15.4651 20.946 18.6491 18.512 21.8112 16.438C24.5652 18.166 27.2212 20.092 29.6113 22.06C30.4853 21.276 31.3393 20.464 32.1533 19.638C29.9993 17.842 27.6392 16.078 25.1092 14.404C28.5333 12.428 34.4793 9.51 38.3854 9.51C39.4074 9.51 40.1394 9.728 40.3914 10.106Z" fill="#C86DD7"/>
<path fill-rule="evenodd" clip-rule="evenodd" d="M18.162 8.342C17.002 7.77 15.976 7.308 15 6.904C16.54 2.744 18.7641 0 21.6421 0C24.4461 0 26.6302 2.602 28.1622 6.584C27.1782 7.006 26.1661 7.478 25.0181 8.062C23.8421 4.928 22.5021 3.512 21.6421 3.512C20.7581 3.512 19.3621 5.012 18.162 8.342ZM21.6421 44.488C20.7841 44.488 19.4421 43.072 18.266 39.938C17.106 40.528 16.104 40.994 15.122 41.416C16.656 45.398 18.8381 48 21.6421 48C24.5201 48 26.7442 45.256 28.2842 41.096C27.3142 40.694 26.2902 40.234 25.1221 39.658C23.9221 42.988 22.5261 44.488 21.6421 44.488ZM42.4964 29.644C42.4964 30.296 42.3384 30.91 42.0564 31.45C44.2584 35.35 43.8004 37.702 42.8784 39.05C42.2304 40.002 40.8603 41.134 38.0303 41.134C33.6883 41.134 28.0242 38.618 24.1721 36.544C25.3361 35.802 26.5302 34.99 27.4902 34.306C30.3642 35.732 34.8263 37.622 38.0303 37.622C39.0463 37.622 39.8003 37.408 40.0483 37.046C40.3063 36.668 40.3243 35.52 39.2183 33.472L38.7023 33.508C36.6063 33.508 34.9083 31.778 34.9083 29.644C34.9083 27.51 36.6063 25.78 38.7023 25.78C40.7983 25.78 42.4964 27.51 42.4964 29.644Z" fill="#FFC300"/>
</svg>
