<svg width="16" height="16" viewBox="0 0 16 16" fill="none" xmlns="http://www.w3.org/2000/svg">
<path fill-rule="evenodd" clip-rule="evenodd" d="M12.852 0H4.66667V3.33333H4V0H3.33333V3.33333H2.66667V0.052C2.43467 0.0893335 2.212 0.146667 2 0.230667V3.33333H1.33333V0.598667C0.530666 1.16933 0 2.096 0 3.148V5.33333H4.98133C5.76 4.47733 6.84667 4 7.98933 4C9.136 4 10.2227 4.48267 10.996 5.33333H16V3.14667C16 1.40933 14.5893 0 12.852 0ZM7.98933 11.2107C9.72133 11.2107 11.128 9.80267 11.128 8.072C11.128 7.13333 10.712 6.28933 10.0573 5.71333C9.82533 5.512 9.56667 5.34267 9.284 5.21467C8.888 5.03467 8.45067 4.93467 7.98933 4.93467C7.52667 4.93467 7.08933 5.03467 6.69467 5.21467C6.41333 5.34267 6.15333 5.512 5.924 5.71333C5.268 6.28933 4.85067 7.132 4.85067 8.072C4.852 9.80267 6.26 11.2107 7.98933 11.2107ZM8 5.75333C9.28133 5.75333 10.3173 6.79067 10.3173 8.072C10.3173 9.35333 9.28133 10.392 8 10.392C6.71867 10.392 5.68267 9.35333 5.68267 8.072C5.68267 6.792 6.71867 5.75333 8 5.75333ZM16 6H11.4813C11.844 6.60933 12.0627 7.31333 12.0627 8.072C12.0627 10.3213 10.2387 12.1453 7.98933 12.1453C5.73867 12.1453 3.916 10.3227 3.916 8.072C3.916 7.31333 4.136 6.60933 4.49733 6H0V12.852C0 14.5907 1.45067 16 3.19067 16H12.852C14.5893 16 16 14.5907 16 12.852V6ZM14.1693 4C14.4453 4 14.6667 3.78 14.6667 3.50933V1.82267C14.6667 1.55333 14.4453 1.33333 14.1693 1.33333H12.496C12.2227 1.33333 12 1.55333 12 1.82267V3.50933C12 3.78 12.2227 4 12.496 4H14.1693Z" fill="white"/>
</svg>
