<svg width="17" height="14" viewBox="0 0 17 14" fill="none" xmlns="http://www.w3.org/2000/svg">
<path d="M16.6667 1.704C16.0787 1.96533 15.4453 2.14133 14.7813 2.22133C15.46 1.81467 15.9787 1.172 16.2253 0.405333C15.5907 0.781333 14.888 1.05467 14.14 1.20133C13.5427 0.562666 12.688 0.164 11.7453 0.164C9.62533 0.164 8.068 2.14133 8.54667 4.19467C5.82 4.05733 3.4 2.75067 1.78133 0.765333C0.921334 2.24 1.336 4.17067 2.79733 5.148C2.26 5.13067 1.75467 4.98267 1.312 4.73733C1.276 6.25733 2.36667 7.68 3.94533 7.99733C3.484 8.12267 2.97733 8.152 2.46267 8.05333C2.88 9.35733 4.09467 10.3053 5.52933 10.332C4.14667 11.4147 2.40933 11.8987 0.666667 11.6933C2.12 12.6253 3.844 13.168 5.69733 13.168C11.7933 13.168 15.236 8.02 15.028 3.40267C15.6707 2.94133 16.2267 2.36267 16.6667 1.704V1.704Z" fill="white"/>
</svg>
