<svg width="0" height="0" class="hidden">
  <symbol fill="none" xmlns="http://www.w3.org/2000/svg" viewBox="0 0 50 46" id="accus">
    <path d="M16.835 23.452L39.967 0l9.45 9.48-23.13 23.456L14 35.546l2.835-12.094z" fill="#C86DD7"></path>
    <path fill-rule="evenodd" clip-rule="evenodd" d="M14.583 16.182h3.632L22.335 12h-7.752v4.182zM37.5 27.577l4.167-4.23v9.562H37.5v-5.332zM27.083 41.273v4.181h-12.5v-4.181h12.5zm-16.666 0h-6.25V37.09H0v8.364h10.417v-4.182zm27.083 0V37.09h4.167v8.364H31.25v-4.182h6.25zM0 32.909h4.167v-8.363H0v8.363zm4.167-16.727v4.182H0V12h10.417v4.182h-6.25z" fill="#FFC300"></path>
    <path d="M20 30.165l4.646-.987L43.98 9.569 40.425 6l-19.36 19.63L20 30.165z" fill="#fff"></path>
  </symbol>
  <symbol fill="none" xmlns="http://www.w3.org/2000/svg" viewBox="0 0 48 48" id="aliq">
    <path fill-rule="evenodd" clip-rule="evenodd" d="M22 12v16h14v-4H26V12h-4zm21.708 15.366l3.996.318a23.883 23.883 0 01-1.304 4.92l-3.6-1.81c.4-1.102.706-2.246.908-3.428zm-7.922 12.766l2.826 2.886a23.86 23.86 0 01-4.598 2.778l-1.338-3.798a19.891 19.891 0 003.11-1.866zm5.278-5.732a20.182 20.182 0 01-2.298 3.056l2.808 2.866a24.075 24.075 0 003.078-4.116L41.064 34.4zm2.33-15.118h4.152c.284 1.428.434 2.906.454 4.416l-4.03-.322a20.324 20.324 0 00-.576-4.094z" fill="#C86DD7"></path>
    <path d="M0 24c0 13.254 10.75 24 24.008 24 2.162 0 4.248-.312 6.24-.848l-1.33-3.788a19.89 19.89 0 01-4.91.636C12.976 44 4.002 35.028 4.002 24S12.976 4 24.008 4c4.47 0 8.586 1.488 11.918 3.978l-4.1 4.098 14.03 2.708L43.146.758l-4.368 4.366C34.706 1.928 29.588 0 24.008 0 10.75 0 0 10.746 0 24z" fill="#FFC300"></path>
  </symbol>
  <symbol fill="none" xmlns="http://www.w3.org/2000/svg" viewBox="0 0 48 48" id="consq">
    <path fill-rule="evenodd" clip-rule="evenodd" d="M6 6a6 6 0 0112 0A6 6 0 016 6zm8 0c0-1.102-.896-2-2-2s-2 .898-2 2c0 1.102.896 2 2 2s2-.898 2-2zm30 18a2 2 0 00-4 0 2 2 0 004 0zM12 40c1.104 0 2 .898 2 2 0 1.102-.896 2-2 2s-2-.898-2-2c0-1.102.896-2 2-2zm30-22a6 6 0 000 12 6 6 0 000-12zM6 42a6 6 0 1112 0 6 6 0 01-12 0z" fill="#C86DD7"></path>
    <path fill-rule="evenodd" clip-rule="evenodd" d="M21.176 2.042L22 2c8.562 0 15.962 4.9 19.6 12.042a9.867 9.867 0 00-3.996 1.022C34.494 9.658 28.672 6 22 6a9.934 9.934 0 00-.824-3.958zM41.6 33.958C37.962 41.1 30.562 46 22 46l-.824-.042A9.934 9.934 0 0022 42c6.672 0 12.494-3.658 15.604-9.064a9.803 9.803 0 003.996 1.022zM0 24c0 4.57 1.394 8.812 3.78 12.33a10.03 10.03 0 012.974-2.806A17.87 17.87 0 014 24c0-3.5 1.02-6.758 2.754-9.524A10.054 10.054 0 013.78 11.67 21.888 21.888 0 000 24z" fill="#FFC300"></path>
  </symbol>
  <symbol fill="none" xmlns="http://www.w3.org/2000/svg" viewBox="0 0 44 48" id="exept">
    <path fill-rule="evenodd" clip-rule="evenodd" d="M.75 38.982c2.277 3.418 7.999 2.044 11.833.634 9.392-3.452 21.656-12.39 27.824-20.664 4.383-5.878 3.965-9.124 2.84-10.814C42.598 7.162 41.227 6 38.386 6c-5.174 0-12.18 3.594-16.608 6.32-4.362-2.572-11.136-5.892-16.164-5.892-2.83 0-4.2 1.132-4.848 2.084-.924 1.352-1.382 3.71.838 7.63a3.883 3.883 0 00-.492 1.9c0 2.134 1.7 3.864 3.794 3.864 2.094 0 3.794-1.73 3.794-3.864s-1.698-3.864-3.794-3.864l-.42.024c-1.166-2.118-1.152-3.3-.89-3.684.246-.364 1.002-.578 2.018-.578 1.592 0 3.67.482 6.03 1.35 2.304.85 4.666 1.99 6.832 3.182-4.498 3.096-7.948 6.088-11.01 9.196-1.366 1.408-2.71 2.938-3.874 4.498-4.382 5.88-3.964 9.126-2.84 10.816zm39.641-28.876c.372.558.28 2.684-2.732 6.722-3.874 5.198-10.054 10.302-15.472 13.854-4.414 2.894-11.874 6.928-16.574 6.928-1.022 0-1.754-.218-2.006-.596-.746-1.122.842-5.294 6.478-11.05a76.882 76.882 0 006.632 5.264l.026.018a61.53 61.53 0 003.304-1.96 74.187 74.187 0 01-7.442-5.746 75.697 75.697 0 019.206-7.102 75.693 75.693 0 017.8 5.622 57.248 57.248 0 002.542-2.422 79.71 79.71 0 00-7.044-5.234c3.424-1.976 9.37-4.894 13.276-4.894 1.022 0 1.754.218 2.006.596z" fill="#C86DD7"></path>
    <path fill-rule="evenodd" clip-rule="evenodd" d="M18.162 8.342A52.277 52.277 0 0015 6.904C16.54 2.744 18.764 0 21.642 0c2.804 0 4.988 2.602 6.52 6.584-.984.422-1.996.894-3.144 1.478-1.176-3.134-2.516-4.55-3.376-4.55-.884 0-2.28 1.5-3.48 4.83zm3.48 36.146c-.858 0-2.2-1.416-3.376-4.55a52.601 52.601 0 01-3.144 1.478C16.656 45.398 18.838 48 21.642 48c2.878 0 5.102-2.744 6.642-6.904a52.516 52.516 0 01-3.162-1.438c-1.2 3.33-2.596 4.83-3.48 4.83zm20.854-14.844c0 .652-.158 1.266-.44 1.806 2.202 3.9 1.744 6.252.822 7.6-.648.952-2.018 2.084-4.848 2.084-4.342 0-10.006-2.516-13.858-4.59a80.813 80.813 0 003.318-2.238c2.874 1.426 7.336 3.316 10.54 3.316 1.016 0 1.77-.214 2.018-.576.258-.378.276-1.526-.83-3.574l-.516.036c-2.096 0-3.794-1.73-3.794-3.864s1.698-3.864 3.794-3.864 3.794 1.73 3.794 3.864z" fill="#FFC300"></path>
  </symbol>
  <symbol fill="none" xmlns="http://www.w3.org/2000/svg" viewBox="0 0 10 16" id="facebook">
    <path d="M3.333 5.333H.667V8h2.666v8h4V8H9.76L10 5.333H7.333v-1.11c0-.638.128-.89.744-.89H10V0H6.795C4.397 0 3.333 1.056 3.333 3.077v2.256z" fill="#fff"></path>
  </symbol>
  <symbol fill="none" xmlns="http://www.w3.org/2000/svg" viewBox="0 0 16 16" id="instagram">
    <path fill-rule="evenodd" clip-rule="evenodd" d="M12.852 0H4.667v3.333H4V0h-.667v3.333h-.666V.052A3.169 3.169 0 002 .231v3.102h-.667V.6A3.128 3.128 0 000 3.148v2.185h4.981a4.056 4.056 0 016.015 0H16V3.147A3.148 3.148 0 0012.852 0zM7.989 11.21a3.137 3.137 0 100-6.276 3.108 3.108 0 00-2.065.78 3.133 3.133 0 00-1.073 2.358 3.144 3.144 0 003.138 3.139zM8 5.754a2.317 2.317 0 012.317 2.319 2.318 2.318 0 11-4.634 0A2.317 2.317 0 018 5.753zM16 6h-4.519c.363.61.582 1.313.582 2.072a4.074 4.074 0 01-8.147 0c0-.759.22-1.463.581-2.072H0v6.852C0 14.591 1.45 16 3.19 16h9.662A3.149 3.149 0 0016 12.852V6zm-1.83-2c.275 0 .497-.22.497-.49V1.822c0-.27-.222-.49-.498-.49h-1.673a.494.494 0 00-.496.49v1.686c0 .271.223.491.496.491h1.673z" fill="#fff"></path>
  </symbol>
  <symbol fill="none" xmlns="http://www.w3.org/2000/svg" viewBox="0 0 44 48" id="quis">
    <path fill-rule="evenodd" clip-rule="evenodd" d="M32 22h12v26H32V22zm8 4v18h-4V26h4zm-24 4h12v18H16V30zm8 4v10h-4V34h4zM0 36h12v12H0V36zm8 8v-4H4v4h4z" fill="#C86DD7"></path>
    <path d="M43.952 0l-12 2.442 3.432 3.416-13.7 13.466-6.002-6.004L0 28.914l2.82 2.836 12.854-12.78 5.982 5.986 16.56-16.274 3.334 3.32L43.952 0z" fill="#FFC300"></path>
  </symbol>
  <symbol fill="none" xmlns="http://www.w3.org/2000/svg" viewBox="0 0 17 14" id="twitter">
    <path d="M16.667 1.704a6.57 6.57 0 01-1.886.517A3.297 3.297 0 0016.225.405a6.567 6.567 0 01-2.085.796 3.286 3.286 0 00-5.593 2.993A9.324 9.324 0 011.78.766a3.287 3.287 0 001.016 4.383 3.276 3.276 0 01-1.485-.41c-.036 1.52 1.055 2.942 2.633 3.26a3.29 3.29 0 01-1.482.055 3.287 3.287 0 003.066 2.279 6.606 6.606 0 01-4.862 1.361 9.284 9.284 0 005.03 1.475c6.096 0 9.539-5.148 9.331-9.765a6.617 6.617 0 001.639-1.699z" fill="#fff"></path>
  </symbol>
  <symbol fill="none" xmlns="http://www.w3.org/2000/svg" viewBox="0 0 48 48" id="volup">
    <path fill-rule="evenodd" clip-rule="evenodd" d="M48 28.772V8H8v40h20.378C34.704 48 48 33.554 48 28.772zM12 44V12h32v15.086C44 35.3 32 32 32 32s3.036 12-5.276 12H12zm6-12h10v-2H18v2zm20-8H18v2h20v-2zm-20-6h20v2H18v-2z" fill="#C86DD7"></path>
    <path d="M42 4H4v38H0V0h42v4z" fill="#FFC300"></path>
  </symbol>
</svg>